<?xml version="1.0" standalone="no"?>
<!DOCTYPE svg PUBLIC "-//W3C//DTD SVG 20010904//EN"
 "http://www.w3.org/TR/2001/REC-SVG-20010904/DTD/svg10.dtd">
<svg version="1.0" xmlns="http://www.w3.org/2000/svg"
 width="512.000000pt" height="512.000000pt" viewBox="0 0 512.000000 512.000000"
 preserveAspectRatio="xMidYMid meet">
<metadata>
Created by potrace 1.14, written by Peter Selinger 2001-2017
</metadata>
<g transform="translate(0.000000,512.000000) scale(0.100000,-0.100000)"
fill="#000000" stroke="none">
<path d="M2745 4858 c-267 -23 -503 -79 -977 -233 -438 -141 -481 -157 -593
-213 -219 -109 -358 -242 -405 -386 -15 -47 -6 -56 58 -56 128 0 383 83 972
318 482 192 618 241 778 283 239 62 665 65 902 8 112 -27 255 -97 312 -151
173 -169 127 -436 -140 -795 -88 -117 -349 -376 -492 -487 -128 -99 -299 -214
-402 -271 l-68 -37 0 742 0 741 -24 24 c-30 30 -114 55 -186 55 -72 0 -156
-25 -186 -55 l-24 -24 0 -898 0 -898 -543 -309 c-298 -170 -545 -314 -548
-319 -14 -21 -19 -126 -8 -178 27 -125 159 -180 320 -133 138 41 337 168 532
339 l87 77 0 -881 0 -881 25 -12 c40 -18 107 14 179 86 121 121 100 15 215
1066 74 665 107 934 118 958 23 45 181 195 413 392 604 511 887 788 1083 1063
165 230 234 425 207 579 -34 187 -183 321 -455 408 -216 69 -803 109 -1150 78z"/>
</g>
</svg>
